<?xml version="1.0" encoding="UTF-8"?>
<svg width="532px" height="384px" viewBox="0 0 532 384" version="1.1" xmlns="http://www.w3.org/2000/svg" xmlns:xlink="http://www.w3.org/1999/xlink">
    <!-- Generator: Sketch 48.2 (47327) - http://www.bohemiancoding.com/sketch -->
    <title>How</title>
    <desc>Created with Sketch.</desc>
    <defs>
        <rect id="path-1" x="0" y="0" width="320" height="220" rx="4"></rect>
        <filter x="-9.7%" y="-13.2%" width="119.4%" height="128.2%" filterUnits="objectBoundingBox" id="filter-2">
            <feOffset dx="0" dy="2" in="SourceAlpha" result="shadowOffsetOuter1"></feOffset>
            <feGaussianBlur stdDeviation="10" in="shadowOffsetOuter1" result="shadowBlurOuter1"></feGaussianBlur>
            <feColorMatrix values="0 0 0 0 0.0117647059   0 0 0 0 0.0196078431   0 0 0 0 0.0823529412  0 0 0 0.513275589 0" type="matrix" in="shadowBlurOuter1"></feColorMatrix>
        </filter>
        <rect id="path-3" x="0" y="0" width="320" height="220" rx="4"></rect>
        <filter x="-9.7%" y="-13.2%" width="119.4%" height="128.2%" filterUnits="objectBoundingBox" id="filter-4">
            <feOffset dx="0" dy="2" in="SourceAlpha" result="shadowOffsetOuter1"></feOffset>
            <feGaussianBlur stdDeviation="10" in="shadowOffsetOuter1" result="shadowBlurOuter1"></feGaussianBlur>
            <feComposite in="shadowBlurOuter1" in2="SourceAlpha" operator="out" result="shadowBlurOuter1"></feComposite>
            <feColorMatrix values="0 0 0 0 0.0117647059   0 0 0 0 0.0196078431   0 0 0 0 0.0823529412  0 0 0 0.2 0" type="matrix" in="shadowBlurOuter1"></feColorMatrix>
        </filter>
        <circle id="path-5" cx="28" cy="4" r="4"></circle>
        <filter x="-75.0%" y="-75.0%" width="250.0%" height="250.0%" filterUnits="objectBoundingBox" id="filter-6">
            <feMorphology radius="0.5" operator="dilate" in="SourceAlpha" result="shadowSpreadOuter1"></feMorphology>
            <feOffset dx="0" dy="0" in="shadowSpreadOuter1" result="shadowOffsetOuter1"></feOffset>
            <feGaussianBlur stdDeviation="1.5" in="shadowOffsetOuter1" result="shadowBlurOuter1"></feGaussianBlur>
            <feColorMatrix values="0 0 0 0 0.243137255   0 0 0 0 0.811764706   0 0 0 0 0.556862745  0 0 0 1 0" type="matrix" in="shadowBlurOuter1"></feColorMatrix>
        </filter>
        <circle id="path-7" cx="4" cy="4" r="4"></circle>
        <filter x="-75.0%" y="-75.0%" width="250.0%" height="250.0%" filterUnits="objectBoundingBox" id="filter-8">
            <feMorphology radius="0.5" operator="dilate" in="SourceAlpha" result="shadowSpreadOuter1"></feMorphology>
            <feOffset dx="0" dy="0" in="shadowSpreadOuter1" result="shadowOffsetOuter1"></feOffset>
            <feGaussianBlur stdDeviation="1.5" in="shadowOffsetOuter1" result="shadowBlurOuter1"></feGaussianBlur>
            <feColorMatrix values="0 0 0 0 0.243137255   0 0 0 0 0.811764706   0 0 0 0 0.556862745  0 0 0 1 0" type="matrix" in="shadowBlurOuter1"></feColorMatrix>
        </filter>
        <circle id="path-9" cx="28" cy="4" r="4"></circle>
        <filter x="-75.0%" y="-75.0%" width="250.0%" height="250.0%" filterUnits="objectBoundingBox" id="filter-10">
            <feMorphology radius="0.5" operator="dilate" in="SourceAlpha" result="shadowSpreadOuter1"></feMorphology>
            <feOffset dx="0" dy="0" in="shadowSpreadOuter1" result="shadowOffsetOuter1"></feOffset>
            <feGaussianBlur stdDeviation="1.5" in="shadowOffsetOuter1" result="shadowBlurOuter1"></feGaussianBlur>
            <feColorMatrix values="0 0 0 0 0.243137255   0 0 0 0 0.811764706   0 0 0 0 0.556862745  0 0 0 1 0" type="matrix" in="shadowBlurOuter1"></feColorMatrix>
        </filter>
        <circle id="path-11" cx="4" cy="4" r="4"></circle>
        <filter x="-75.0%" y="-75.0%" width="250.0%" height="250.0%" filterUnits="objectBoundingBox" id="filter-12">
            <feMorphology radius="0.5" operator="dilate" in="SourceAlpha" result="shadowSpreadOuter1"></feMorphology>
            <feOffset dx="0" dy="0" in="shadowSpreadOuter1" result="shadowOffsetOuter1"></feOffset>
            <feGaussianBlur stdDeviation="1.5" in="shadowOffsetOuter1" result="shadowBlurOuter1"></feGaussianBlur>
            <feColorMatrix values="0 0 0 0 0.243137255   0 0 0 0 0.811764706   0 0 0 0 0.556862745  0 0 0 1 0" type="matrix" in="shadowBlurOuter1"></feColorMatrix>
        </filter>
        <circle id="path-13" cx="26" cy="3" r="3"></circle>
        <filter x="-100.0%" y="-100.0%" width="300.0%" height="300.0%" filterUnits="objectBoundingBox" id="filter-14">
            <feMorphology radius="0.5" operator="dilate" in="SourceAlpha" result="shadowSpreadOuter1"></feMorphology>
            <feOffset dx="0" dy="0" in="shadowSpreadOuter1" result="shadowOffsetOuter1"></feOffset>
            <feGaussianBlur stdDeviation="1.5" in="shadowOffsetOuter1" result="shadowBlurOuter1"></feGaussianBlur>
            <feColorMatrix values="0 0 0 0 0.333333333   0 0 0 0 0.352941176   0 0 0 0 0.749019608  0 0 0 1 0" type="matrix" in="shadowBlurOuter1"></feColorMatrix>
        </filter>
        <circle id="path-15" cx="3" cy="3" r="3"></circle>
        <filter x="-100.0%" y="-100.0%" width="300.0%" height="300.0%" filterUnits="objectBoundingBox" id="filter-16">
            <feMorphology radius="0.5" operator="dilate" in="SourceAlpha" result="shadowSpreadOuter1"></feMorphology>
            <feOffset dx="0" dy="0" in="shadowSpreadOuter1" result="shadowOffsetOuter1"></feOffset>
            <feGaussianBlur stdDeviation="1.5" in="shadowOffsetOuter1" result="shadowBlurOuter1"></feGaussianBlur>
            <feColorMatrix values="0 0 0 0 0.333333333   0 0 0 0 0.352941176   0 0 0 0 0.749019608  0 0 0 1 0" type="matrix" in="shadowBlurOuter1"></feColorMatrix>
        </filter>
        <circle id="path-17" cx="14" cy="2" r="2"></circle>
        <filter x="-150.0%" y="-150.0%" width="400.0%" height="400.0%" filterUnits="objectBoundingBox" id="filter-18">
            <feMorphology radius="0.5" operator="dilate" in="SourceAlpha" result="shadowSpreadOuter1"></feMorphology>
            <feOffset dx="0" dy="0" in="shadowSpreadOuter1" result="shadowOffsetOuter1"></feOffset>
            <feGaussianBlur stdDeviation="1.5" in="shadowOffsetOuter1" result="shadowBlurOuter1"></feGaussianBlur>
            <feColorMatrix values="0 0 0 0 0.4112913   0 0 0 0 0.508562044   0 0 0 0 0.763897747  0 0 0 1 0" type="matrix" in="shadowBlurOuter1"></feColorMatrix>
        </filter>
        <circle id="path-19" cx="2" cy="2" r="2"></circle>
        <filter x="-150.0%" y="-150.0%" width="400.0%" height="400.0%" filterUnits="objectBoundingBox" id="filter-20">
            <feMorphology radius="0.5" operator="dilate" in="SourceAlpha" result="shadowSpreadOuter1"></feMorphology>
            <feOffset dx="0" dy="0" in="shadowSpreadOuter1" result="shadowOffsetOuter1"></feOffset>
            <feGaussianBlur stdDeviation="1.5" in="shadowOffsetOuter1" result="shadowBlurOuter1"></feGaussianBlur>
            <feColorMatrix values="0 0 0 0 0.4112913   0 0 0 0 0.508562044   0 0 0 0 0.763897747  0 0 0 1 0" type="matrix" in="shadowBlurOuter1"></feColorMatrix>
        </filter>
    </defs>
    <g id="Illustrations" stroke="none" stroke-width="1" fill="none" fill-rule="evenodd">
        <g id="How">
            <g id="Group" transform="translate(32.000000, 42.000000)">
                <g id="Graph" transform="translate(148.000000, 80.000000)">
                    <g id="Graph-BG">
                        <use fill="black" fill-opacity="1" filter="url(#filter-2)" xlink:href="#path-1"></use>
                        <use fill="#DEE0EE" fill-rule="evenodd" xlink:href="#path-1"></use>
                    </g>
                    <path d="M58,61 C55.790861,61 54,59.209139 54,57 C54,54.790861 55.790861,53 58,53 C60.209139,53 62,54.790861 62,57 C62,59.209139 60.209139,61 58,61 Z M68,81 C65.790861,81 64,79.209139 64,77 C64,74.790861 65.790861,73 68,73 C70.209139,73 72,74.790861 72,77 C72,79.209139 70.209139,81 68,81 Z M89,60 C86.790861,60 85,58.209139 85,56 C85,53.790861 86.790861,52 89,52 C91.209139,52 93,53.790861 93,56 C93,58.209139 91.209139,60 89,60 Z M79,40 C76.790861,40 75,38.209139 75,36 C75,33.790861 76.790861,32 79,32 C81.209139,32 83,33.790861 83,36 C83,38.209139 81.209139,40 79,40 Z M119,81 C116.790861,81 115,79.209139 115,77 C115,74.790861 116.790861,73 119,73 C121.209139,73 123,74.790861 123,77 C123,79.209139 121.209139,81 119,81 Z M98,91 C95.790861,91 94,89.209139 94,87 C94,84.790861 95.790861,83 98,83 C100.209139,83 102,84.790861 102,87 C102,89.209139 100.209139,91 98,91 Z M108,51 C105.790861,51 104,49.209139 104,47 C104,44.790861 105.790861,43 108,43 C110.209139,43 112,44.790861 112,47 C112,49.209139 110.209139,51 108,51 Z M48,41 C45.790861,41 44,39.209139 44,37 C44,34.790861 45.790861,33 48,33 C50.209139,33 52,34.790861 52,37 C52,39.209139 50.209139,41 48,41 Z M38,91 C35.790861,91 34,89.209139 34,87 C34,84.790861 35.790861,83 38,83 C40.209139,83 42,84.790861 42,87 C42,89.209139 40.209139,91 38,91 Z M68,102 C65.790861,102 64,100.209139 64,98 C64,95.790861 65.790861,94 68,94 C70.209139,94 72,95.790861 72,98 C72,100.209139 70.209139,102 68,102 Z M48,82 C45.790861,82 44,80.209139 44,78 C44,75.790861 45.790861,74 48,74 C50.209139,74 52,75.790861 52,78 C52,80.209139 50.209139,82 48,82 Z M67,50 C64.790861,50 63,48.209139 63,46 C63,43.790861 64.790861,42 67,42 C69.209139,42 71,43.790861 71,46 C71,48.209139 69.209139,50 67,50 Z M27,30 C24.790861,30 23,28.209139 23,26 C23,23.790861 24.790861,22 27,22 C29.209139,22 31,23.790861 31,26 C31,28.209139 29.209139,30 27,30 Z M27,70 C24.790861,70 23,68.209139 23,66 C23,63.790861 24.790861,62 27,62 C29.209139,62 31,63.790861 31,66 C31,68.209139 29.209139,70 27,70 Z M87,130 C84.790861,130 83,128.209139 83,126 C83,123.790861 84.790861,122 87,122 C89.209139,122 91,123.790861 91,126 C91,128.209139 89.209139,130 87,130 Z M56,120 C53.790861,120 52,118.209139 52,116 C52,113.790861 53.790861,112 56,112 C58.209139,112 60,113.790861 60,116 C60,118.209139 58.209139,120 56,120 Z M106,110 C103.790861,110 102,108.209139 102,106 C102,103.790861 103.790861,102 106,102 C108.209139,102 110,103.790861 110,106 C110,108.209139 108.209139,110 106,110 Z M146,60 C143.790861,60 142,58.209139 142,56 C142,53.790861 143.790861,52 146,52 C148.209139,52 150,53.790861 150,56 C150,58.209139 148.209139,60 146,60 Z M134,48 C131.790861,48 130,46.209139 130,44 C130,41.790861 131.790861,40 134,40 C136.209139,40 138,41.790861 138,44 C138,46.209139 136.209139,48 134,48 Z M64,148 C61.790861,148 60,146.209139 60,144 C60,141.790861 61.790861,140 64,140 C66.209139,140 68,141.790861 68,144 C68,146.209139 66.209139,148 64,148 Z M34,118 C31.790861,118 30,116.209139 30,114 C30,111.790861 31.790861,110 34,110 C36.209139,110 38,111.790861 38,114 C38,116.209139 36.209139,118 34,118 Z M84,118 C81.790861,118 80,116.209139 80,114 C80,111.790861 81.790861,110 84,110 C86.209139,110 88,111.790861 88,114 C88,116.209139 86.209139,118 84,118 Z M104,74 C101.790861,74 100,72.209139 100,70 C100,67.790861 101.790861,66 104,66 C106.209139,66 108,67.790861 108,70 C108,72.209139 106.209139,74 104,74 Z M134,104 C131.790861,104 130,102.209139 130,100 C130,97.790861 131.790861,96 134,96 C136.209139,96 138,97.790861 138,100 C138,102.209139 136.209139,104 134,104 Z M154,84 C151.790861,84 150,82.209139 150,80 C150,77.790861 151.790861,76 154,76 C156.209139,76 158,77.790861 158,80 C158,82.209139 156.209139,84 154,84 Z M185,64 C182.790861,64 181,62.209139 181,60 C181,57.790861 182.790861,56 185,56 C187.209139,56 189,57.790861 189,60 C189,62.209139 187.209139,64 185,64 Z" id="Combined-Shape" fill="#8991A6"></path>
                    <path d="M204,92 C201.790861,92 200,90.209139 200,88 C200,85.790861 201.790861,84 204,84 C206.209139,84 208,85.790861 208,88 C208,90.209139 206.209139,92 204,92 Z M214,62 C211.790861,62 210,60.209139 210,58 C210,55.790861 211.790861,54 214,54 C216.209139,54 218,55.790861 218,58 C218,60.209139 216.209139,62 214,62 Z M218,40 C215.790861,40 214,38.209139 214,36 C214,33.790861 215.790861,32 218,32 C220.209139,32 222,33.790861 222,36 C222,38.209139 220.209139,40 218,40 Z M198,40 C195.790861,40 194,38.209139 194,36 C194,33.790861 195.790861,32 198,32 C200.209139,32 202,33.790861 202,36 C202,38.209139 200.209139,40 198,40 Z M239,49 C236.790861,49 235,47.209139 235,45 C235,42.790861 236.790861,41 239,41 C241.209139,41 243,42.790861 243,45 C243,47.209139 241.209139,49 239,49 Z M259,59 C256.790861,59 255,57.209139 255,55 C255,52.790861 256.790861,51 259,51 C261.209139,51 263,52.790861 263,55 C263,57.209139 261.209139,59 259,59 Z M239,79 C236.790861,79 235,77.209139 235,75 C235,72.790861 236.790861,71 239,71 C241.209139,71 243,72.790861 243,75 C243,77.209139 241.209139,79 239,79 Z M229,99 C226.790861,99 225,97.209139 225,95 C225,92.790861 226.790861,91 229,91 C231.209139,91 233,92.790861 233,95 C233,97.209139 231.209139,99 229,99 Z M209,119 C206.790861,119 205,117.209139 205,115 C205,112.790861 206.790861,111 209,111 C211.209139,111 213,112.790861 213,115 C213,117.209139 211.209139,119 209,119 Z M230,139 C227.790861,139 226,137.209139 226,135 C226,132.790861 227.790861,131 230,131 C232.209139,131 234,132.790861 234,135 C234,137.209139 232.209139,139 230,139 Z M250,109 C247.790861,109 246,107.209139 246,105 C246,102.790861 247.790861,101 250,101 C252.209139,101 254,102.790861 254,105 C254,107.209139 252.209139,109 250,109 Z M271,79 C268.790861,79 267,77.209139 267,75 C267,72.790861 268.790861,71 271,71 C273.209139,71 275,72.790861 275,75 C275,77.209139 273.209139,79 271,79 Z M261,99 C258.790861,99 257,97.209139 257,95 C257,92.790861 258.790861,91 261,91 C263.209139,91 265,92.790861 265,95 C265,97.209139 263.209139,99 261,99 Z M201,139 C198.790861,139 197,137.209139 197,135 C197,132.790861 198.790861,131 201,131 C203.209139,131 205,132.790861 205,135 C205,137.209139 203.209139,139 201,139 Z M221,79 C218.790861,79 217,77.209139 217,75 C217,72.790861 218.790861,71 221,71 C223.209139,71 225,72.790861 225,75 C225,77.209139 223.209139,79 221,79 Z M271,29 C268.790861,29 267,27.209139 267,25 C267,22.790861 268.790861,21 271,21 C273.209139,21 275,22.790861 275,25 C275,27.209139 273.209139,29 271,29 Z M180,29 C177.790861,29 176,27.209139 176,25 C176,22.790861 177.790861,21 180,21 C182.209139,21 184,22.790861 184,25 C184,27.209139 182.209139,29 180,29 Z M220,19 C217.790861,19 216,17.209139 216,15 C216,12.790861 217.790861,11 220,11 C222.209139,11 224,12.790861 224,15 C224,17.209139 222.209139,19 220,19 Z M290,49 C287.790861,49 286,47.209139 286,45 C286,42.790861 287.790861,41 290,41 C292.209139,41 294,42.790861 294,45 C294,47.209139 292.209139,49 290,49 Z M289,69 C286.790861,69 285,67.209139 285,65 C285,62.790861 286.790861,61 289,61 C291.209139,61 293,62.790861 293,65 C293,67.209139 291.209139,69 289,69 Z M273,47 C270.790861,47 269,45.209139 269,43 C269,40.790861 270.790861,39 273,39 C275.209139,39 277,40.790861 277,43 C277,45.209139 275.209139,47 273,47 Z M273,97 C270.790861,97 269,95.209139 269,93 C269,90.790861 270.790861,89 273,89 C275.209139,89 277,90.790861 277,93 C277,95.209139 275.209139,97 273,97 Z M293,117 C290.790861,117 289,115.209139 289,113 C289,110.790861 290.790861,109 293,109 C295.209139,109 297,110.790861 297,113 C297,115.209139 295.209139,117 293,117 Z M273,157 C270.790861,157 269,155.209139 269,153 C269,150.790861 270.790861,149 273,149 C275.209139,149 277,150.790861 277,153 C277,155.209139 275.209139,157 273,157 Z M253,137 C250.790861,137 249,135.209139 249,133 C249,130.790861 250.790861,129 253,129 C255.209139,129 257,130.790861 257,133 C257,135.209139 255.209139,137 253,137 Z M273,117 C270.790861,117 269,115.209139 269,113 C269,110.790861 270.790861,109 273,109 C275.209139,109 277,110.790861 277,113 C277,115.209139 275.209139,117 273,117 Z M233,117 C230.790861,117 229,115.209139 229,113 C229,110.790861 230.790861,109 233,109 C235.209139,109 237,110.790861 237,113 C237,115.209139 235.209139,117 233,117 Z" id="Combined-Shape" fill="#555ABF"></path>
                    <path d="M127,138 C124.790861,138 123,136.209139 123,134 C123,131.790861 124.790861,130 127,130 C129.209139,130 131,131.790861 131,134 C131,136.209139 129.209139,138 127,138 Z M157,118 C154.790861,118 153,116.209139 153,114 C153,111.790861 154.790861,110 157,110 C159.209139,110 161,111.790861 161,114 C161,116.209139 159.209139,118 157,118 Z M107,158 C104.790861,158 103,156.209139 103,154 C103,151.790861 104.790861,150 107,150 C109.209139,150 111,151.790861 111,154 C111,156.209139 109.209139,158 107,158 Z M148,138 C145.790861,138 144,136.209139 144,134 C144,131.790861 145.790861,130 148,130 C150.209139,130 152,131.790861 152,134 C152,136.209139 150.209139,138 148,138 Z M168,149 C165.790861,149 164,147.209139 164,145 C164,142.790861 165.790861,141 168,141 C170.209139,141 172,142.790861 172,145 C172,147.209139 170.209139,149 168,149 Z M178,129 C175.790861,129 174,127.209139 174,125 C174,122.790861 175.790861,121 178,121 C180.209139,121 182,122.790861 182,125 C182,127.209139 180.209139,129 178,129 Z M188,169 C185.790861,169 184,167.209139 184,165 C184,162.790861 185.790861,161 188,161 C190.209139,161 192,162.790861 192,165 C192,167.209139 190.209139,169 188,169 Z M148,169 C145.790861,169 144,167.209139 144,165 C144,162.790861 145.790861,161 148,161 C150.209139,161 152,162.790861 152,165 C152,167.209139 150.209139,169 148,169 Z M128,179 C125.790861,179 124,177.209139 124,175 C124,172.790861 125.790861,171 128,171 C130.209139,171 132,172.790861 132,175 C132,177.209139 130.209139,179 128,179 Z M128,149 C125.790861,149 124,147.209139 124,145 C124,142.790861 125.790861,141 128,141 C130.209139,141 132,142.790861 132,145 C132,147.209139 130.209139,149 128,149 Z M168,169 C165.790861,169 164,167.209139 164,165 C164,162.790861 165.790861,161 168,161 C170.209139,161 172,162.790861 172,165 C172,167.209139 170.209139,169 168,169 Z M168,199 C165.790861,199 164,197.209139 164,195 C164,192.790861 165.790861,191 168,191 C170.209139,191 172,192.790861 172,195 C172,197.209139 170.209139,199 168,199 Z M157,189 C154.790861,189 153,187.209139 153,185 C153,182.790861 154.790861,181 157,181 C159.209139,181 161,182.790861 161,185 C161,187.209139 159.209139,189 157,189 Z M96,179 C93.790861,179 92,177.209139 92,175 C92,172.790861 93.790861,171 96,171 C98.209139,171 100,172.790861 100,175 C100,177.209139 98.209139,179 96,179 Z M207,189 C204.790861,189 203,187.209139 203,185 C203,182.790861 204.790861,181 207,181 C209.209139,181 211,182.790861 211,185 C211,187.209139 209.209139,189 207,189 Z M237,199 C234.790861,199 233,197.209139 233,195 C233,192.790861 234.790861,191 237,191 C239.209139,191 241,192.790861 241,195 C241,197.209139 239.209139,199 237,199 Z M217,179 C214.790861,179 213,177.209139 213,175 C213,172.790861 214.790861,171 217,171 C219.209139,171 221,172.790861 221,175 C221,177.209139 219.209139,179 217,179 Z M227,169 C224.790861,169 223,167.209139 223,165 C223,162.790861 224.790861,161 227,161 C229.209139,161 231,162.790861 231,165 C231,167.209139 229.209139,169 227,169 Z M183,186 C180.790861,186 179,184.209139 179,182 C179,179.790861 180.790861,178 183,178 C185.209139,178 187,179.790861 187,182 C187,184.209139 185.209139,186 183,186 Z M143,156 C140.790861,156 139,154.209139 139,152 C139,149.790861 140.790861,148 143,148 C145.209139,148 147,149.790861 147,152 C147,154.209139 145.209139,156 143,156 Z M103,196 C100.790861,196 99,194.209139 99,192 C99,189.790861 100.790861,188 103,188 C105.209139,188 107,189.790861 107,192 C107,194.209139 105.209139,196 103,196 Z M123,166 C120.790861,166 119,164.209139 119,162 C119,159.790861 120.790861,158 123,158 C125.209139,158 127,159.790861 127,162 C127,164.209139 125.209139,166 123,166 Z M113,186 C110.790861,186 109,184.209139 109,182 C109,179.790861 110.790861,178 113,178 C115.209139,178 117,179.790861 117,182 C117,184.209139 115.209139,186 113,186 Z M194,206 C191.790861,206 190,204.209139 190,202 C190,199.790861 191.790861,198 194,198 C196.209139,198 198,199.790861 198,202 C198,204.209139 196.209139,206 194,206 Z M84,196 C81.790861,196 80,194.209139 80,192 C80,189.790861 81.790861,188 84,188 C86.209139,188 88,189.790861 88,192 C88,194.209139 86.209139,196 84,196 Z M54,196 C51.790861,196 50,194.209139 50,192 C50,189.790861 51.790861,188 54,188 C56.209139,188 58,189.790861 58,192 C58,194.209139 56.209139,196 54,196 Z M124,196 C121.790861,196 120,194.209139 120,192 C120,189.790861 121.790861,188 124,188 C126.209139,188 128,189.790861 128,192 C128,194.209139 126.209139,196 124,196 Z M234,186 C231.790861,186 230,184.209139 230,182 C230,179.790861 231.790861,178 234,178 C236.209139,178 238,179.790861 238,182 C238,184.209139 236.209139,186 234,186 Z M254,206 C251.790861,206 250,204.209139 250,202 C250,199.790861 251.790861,198 254,198 C256.209139,198 258,199.790861 258,202 C258,204.209139 256.209139,206 254,206 Z" id="Combined-Shape" fill="#24B47E"></path>
                </g>
                <g id="Photo">
                    <g>
                        <use fill="black" fill-opacity="1" filter="url(#filter-4)" xlink:href="#path-3"></use>
                        <use fill="#0A0C22" fill-rule="evenodd" xlink:href="#path-3"></use>
                        <rect stroke-opacity="0.612998188" stroke="#292D51" stroke-width="1" x="0.5" y="0.5" width="319" height="219" rx="4"></rect>
                    </g>
                    <g id="Target" transform="translate(42.000000, 18.000000)">
                        <g id="Eyes" transform="translate(17.000000, 30.000000)">
                            <g id="Oval">
                                <use fill="black" fill-opacity="1" filter="url(#filter-6)" xlink:href="#path-5"></use>
                                <use fill="#D6FACF" fill-rule="evenodd" xlink:href="#path-5"></use>
                            </g>
                            <g id="Oval">
                                <use fill="black" fill-opacity="1" filter="url(#filter-8)" xlink:href="#path-7"></use>
                                <use fill="#D6FACF" fill-rule="evenodd" xlink:href="#path-7"></use>
                            </g>
                        </g>
                        <g id="Frame">
                            <path d="M1,8 L1,67 C1,68.6568542 2.34314575,70 4,70 L60,70 C61.6568542,70 63,68.6568542 63,67 L63,11 C63,9.34314575 61.6568542,8 60,8 L1,8 Z" id="Rectangle-2" stroke="#3ECF8E" stroke-width="2"></path>
                            <rect id="Rectangle-3" fill="#3ECF8E" x="0" y="0" width="16" height="9" rx="1"></rect>
                        </g>
                    </g>
                    <g id="Target" transform="translate(202.000000, 118.000000)">
                        <g id="Eyes" transform="translate(17.000000, 30.000000)">
                            <g id="Oval">
                                <use fill="black" fill-opacity="1" filter="url(#filter-10)" xlink:href="#path-9"></use>
                                <use fill="#D6FACF" fill-rule="evenodd" xlink:href="#path-9"></use>
                            </g>
                            <g id="Oval">
                                <use fill="black" fill-opacity="1" filter="url(#filter-12)" xlink:href="#path-11"></use>
                                <use fill="#D6FACF" fill-rule="evenodd" xlink:href="#path-11"></use>
                            </g>
                        </g>
                        <g id="Frame">
                            <path d="M1,8 L1,67 C1,68.6568542 2.34314575,70 4,70 L60,70 C61.6568542,70 63,68.6568542 63,67 L63,11 C63,9.34314575 61.6568542,8 60,8 L1,8 Z" id="Rectangle-2" stroke="#3ECF8E" stroke-width="2"></path>
                            <rect id="Rectangle-3" fill="#3ECF8E" x="0" y="0" width="16" height="9" rx="1"></rect>
                        </g>
                    </g>
                    <g id="Target" transform="translate(102.000000, 118.000000)">
                        <g id="Eyes" transform="translate(10.000000, 22.000000)">
                            <g id="Oval">
                                <use fill="black" fill-opacity="1" filter="url(#filter-14)" xlink:href="#path-13"></use>
                                <use fill="#DEE0EE" fill-rule="evenodd" xlink:href="#path-13"></use>
                            </g>
                            <g id="Oval">
                                <use fill="black" fill-opacity="1" filter="url(#filter-16)" xlink:href="#path-15"></use>
                                <use fill="#DEE0EE" fill-rule="evenodd" xlink:href="#path-15"></use>
                            </g>
                        </g>
                        <g id="Frame">
                            <path d="M1,8 L1,51 C1,52.6568542 2.34314575,54 4,54 L44,54 C45.6568542,54 47,52.6568542 47,51 L47,11 C47,9.34314575 45.6568542,8 44,8 L1,8 Z" id="Rectangle-2" stroke="#555ABF" stroke-width="2"></path>
                            <rect id="Rectangle-3" fill="#555ABF" x="0" y="0" width="16" height="9" rx="1"></rect>
                        </g>
                    </g>
                    <g id="Target" transform="translate(163.000000, 59.000000)">
                        <g id="Eyes" transform="translate(8.000000, 19.000000)">
                            <g id="Oval">
                                <use fill="black" fill-opacity="1" filter="url(#filter-18)" xlink:href="#path-17"></use>
                                <use fill="#8991A6" fill-rule="evenodd" xlink:href="#path-17"></use>
                            </g>
                            <g id="Oval">
                                <use fill="black" fill-opacity="1" filter="url(#filter-20)" xlink:href="#path-19"></use>
                                <use fill="#8991A6" fill-rule="evenodd" xlink:href="#path-19"></use>
                            </g>
                        </g>
                        <g id="Frame">
                            <path d="M1,8 L1,35 C1,36.6568542 2.34314575,38 4,38 L28,38 C29.6568542,38 31,36.6568542 31,35 L31,11 C31,9.34314575 29.6568542,8 28,8 L1,8 Z" id="Rectangle-2" stroke="#8991A6" stroke-width="2"></path>
                            <rect id="Rectangle-3" fill="#8991A6" x="0" y="0" width="16" height="9" rx="1"></rect>
                        </g>
                    </g>
                </g>
            </g>
        </g>
    </g>
</svg>