<?xml version="1.0" encoding="UTF-8"?>
<svg width="16px" height="16px" viewBox="0 0 16 16" version="1.1" xmlns="http://www.w3.org/2000/svg" xmlns:xlink="http://www.w3.org/1999/xlink">
    <!-- Generator: Sketch 48.2 (47327) - http://www.bohemiancoding.com/sketch -->
    <title>mask</title>
    <desc>Created with Sketch.</desc>
    <defs></defs>
    <g id="Meta" stroke="none" stroke-width="1" fill="none" fill-rule="evenodd">
        <g id="mask">
            <path d="M8.41143574,5.01327617 C8.33092825,5.07990356 8.23835663,5.12901918 8.13896904,5.15777582 L8,5.19798489 L7.86103096,5.15777582 C7.75792932,5.12794457 7.66216258,5.07620429 7.59403784,5.01760448 L2.47702251,0.971250966 L2.42907065,6.78875299 L2.37949904,7.00172524 L0.816332257,10.2328456 C2.35786181,10.1465395 3.89067145,10.591151 5.40362879,11.5563198 C6.60475309,12.3251244 7.47266403,13.360454 8.00000159,14.6505988 C8.5273575,13.3604409 9.39536667,12.3250479 10.5970102,11.5559114 C12.1074293,10.5923626 13.6381904,10.1476841 15.1777065,10.2325142 L13.620501,7.00172524 L13.5709294,6.78875299 L13.5229775,0.971250966 L8.41143574,5.01327617 Z M8.31209048,15.5900996 C8.31228963,15.5908598 8.31248869,15.59162 8.31268764,15.5923803 C8.3121316,15.5902553 8.31155906,15.5881958 8.3109751,15.5862059 Z M7.95320001,15.4101721 C7.92263182,15.4087415 7.8922578,15.4123027 7.86343258,15.4204871 L8,15.3817114 L8.13656742,15.4204871 C8.07827401,15.4039358 8.01519553,15.4007337 7.95320001,15.4101721 Z M7.75173331,15.492393 C7.74331011,15.4985392 7.73509589,15.5049996 7.72711608,15.5117712 C7.71954793,15.5216665 7.71284165,15.5320186 7.70704265,15.5427102 L7.75173331,15.492393 Z M7.70279132,15.5341206 C7.67639007,15.5603868 7.65325949,15.5905105 7.63452705,15.6243555 L7.69764655,15.5532893 C7.69935437,15.5468945 7.70106929,15.5405049 7.70279132,15.5341206 Z M7.77779733,4.23970271 C7.77557494,4.24146045 7.77339071,4.24325504 7.77124607,4.24508535 L7.77779746,4.23970261 Z" id="Path" stroke="#000000"></path>
            <circle id="Oval-2" fill="#000000" cx="5" cy="8" r="1"></circle>
            <circle id="Oval-2" fill="#000000" cx="11" cy="8" r="1"></circle>
        </g>
    </g>
</svg>